<svg width="3504" height="1221" viewBox="0 0 3504 1221" fill="none" xmlns="http://www.w3.org/2000/svg">
<path d="M759.571 588.571L673.857 674.286M673.857 674.286L759.571 760M673.857 674.286H931M802.429 460L888.143 545.714M888.143 545.714L802.429 631.429M888.143 545.714H631" stroke="#737370" stroke-width="38.0952" stroke-linecap="round" stroke-linejoin="round"/>
<path d="M2959.57 588.571L2873.86 674.286M2873.86 674.286L2959.57 760M2873.86 674.286H3131M3002.43 460L3088.14 545.714M3088.14 545.714L3002.43 631.429M3088.14 545.714H2831" stroke="#737370" stroke-width="38.0952" stroke-linecap="round" stroke-linejoin="round"/>
<path d="M1598.71 595.714L1541.57 652.857M1541.57 652.857L1598.71 710M1541.57 652.857H1713M1627.29 510L1684.43 567.143M1684.43 567.143L1627.29 624.286M1684.43 567.143H1513" stroke="#737370" stroke-width="38.0952" stroke-linecap="round" stroke-linejoin="round"/>
<path d="M14.4886 141V121.824C14.4886 116 15.5185 109.821 17.5781 103.287C19.7088 96.6818 22.7628 90.3253 26.7401 84.2173C30.7884 78.0383 35.6534 72.6761 41.3352 68.1307L54.9716 79.2102C50.4972 85.6023 46.5909 92.2784 43.2528 99.2386C39.9858 106.128 38.3523 113.514 38.3523 121.398V141H14.4886ZM69.0341 141V121.824C69.0341 116 70.0639 109.821 72.1236 103.287C74.2543 96.6818 77.3082 90.3253 81.2855 84.2173C85.3338 78.0383 90.1989 72.6761 95.8807 68.1307L109.517 79.2102C105.043 85.6023 101.136 92.2784 97.7983 99.2386C94.5313 106.128 92.8977 113.514 92.8977 121.398V141H69.0341ZM174.343 291L124.485 127.364H150.906L186.275 252.648H187.979L222.923 127.364H249.769L284.286 252.222H285.991L321.36 127.364H347.781L297.923 291H273.207L237.411 165.29H234.854L199.059 291H174.343ZM444.061 294.409C428.294 294.409 414.693 290.929 403.258 283.969C391.895 276.938 383.123 267.136 376.944 254.565C370.836 241.923 367.782 227.222 367.782 210.46C367.782 193.699 370.836 178.926 376.944 166.142C383.123 153.287 391.717 143.273 402.725 136.099C413.805 128.855 426.731 125.233 441.504 125.233C450.027 125.233 458.443 126.653 466.752 129.494C475.062 132.335 482.626 136.952 489.444 143.344C496.262 149.665 501.696 158.045 505.744 168.486C509.792 178.926 511.816 191.781 511.816 207.051V217.705H385.68V195.972H486.248C486.248 186.739 484.402 178.5 480.708 171.256C477.086 164.011 471.902 158.294 465.154 154.104C458.478 149.913 450.595 147.818 441.504 147.818C431.49 147.818 422.825 150.304 415.51 155.276C408.265 160.176 402.69 166.568 398.784 174.452C394.877 182.335 392.924 190.787 392.924 199.807V214.295C392.924 226.653 395.055 237.129 399.316 245.723C403.649 254.246 409.65 260.744 417.321 265.219C424.991 269.622 433.904 271.824 444.061 271.824C450.666 271.824 456.632 270.901 461.958 269.054C467.356 267.136 472.008 264.295 475.914 260.531C479.821 256.696 482.839 251.937 484.97 246.256L509.26 253.074C506.703 261.312 502.406 268.557 496.369 274.807C490.332 280.986 482.875 285.815 473.997 289.295C465.119 292.705 455.14 294.409 444.061 294.409ZM575.204 72.8182V291H550.062V72.8182H575.204ZM687.731 294.409C672.39 294.409 659.18 290.787 648.1 283.543C637.021 276.298 628.498 266.32 622.532 253.607C616.566 240.893 613.583 226.369 613.583 210.034C613.583 193.415 616.637 178.749 622.745 166.036C628.924 153.251 637.518 143.273 648.526 136.099C659.606 128.855 672.532 125.233 687.305 125.233C698.81 125.233 709.18 127.364 718.413 131.625C727.646 135.886 735.21 141.852 741.104 149.523C746.999 157.193 750.657 166.142 752.077 176.369H726.935C725.018 168.912 720.756 162.307 714.151 156.554C707.617 150.73 698.81 147.818 687.731 147.818C677.93 147.818 669.336 150.375 661.95 155.489C654.634 160.531 648.917 167.669 644.798 176.902C640.749 186.064 638.725 196.824 638.725 209.182C638.725 221.824 640.714 232.832 644.691 242.207C648.739 251.582 654.421 258.862 661.737 264.047C669.123 269.232 677.788 271.824 687.731 271.824C694.265 271.824 700.195 270.688 705.522 268.415C710.849 266.142 715.359 262.875 719.052 258.614C722.745 254.352 725.373 249.239 726.935 243.273H752.077C750.657 252.932 747.141 261.632 741.531 269.374C735.991 277.044 728.64 283.152 719.478 287.697C710.387 292.172 699.805 294.409 687.731 294.409ZM855.309 294.409C840.536 294.409 827.575 290.893 816.424 283.862C805.344 276.831 796.68 266.994 790.43 254.352C784.251 241.71 781.161 226.937 781.161 210.034C781.161 192.989 784.251 178.109 790.43 165.396C796.68 152.683 805.344 142.811 816.424 135.78C827.575 128.749 840.536 125.233 855.309 125.233C870.082 125.233 883.008 128.749 894.087 135.78C905.238 142.811 913.903 152.683 920.082 165.396C926.332 178.109 929.457 192.989 929.457 210.034C929.457 226.937 926.332 241.71 920.082 254.352C913.903 266.994 905.238 276.831 894.087 283.862C883.008 290.893 870.082 294.409 855.309 294.409ZM855.309 271.824C866.531 271.824 875.763 268.947 883.008 263.195C890.252 257.442 895.614 249.878 899.094 240.503C902.575 231.128 904.315 220.972 904.315 210.034C904.315 199.097 902.575 188.905 899.094 179.459C895.614 170.013 890.252 162.378 883.008 156.554C875.763 150.73 866.531 147.818 855.309 147.818C844.087 147.818 834.854 150.73 827.61 156.554C820.366 162.378 815.004 170.013 811.523 179.459C808.043 188.905 806.303 199.097 806.303 210.034C806.303 220.972 808.043 231.128 811.523 240.503C815.004 249.878 820.366 257.442 827.61 263.195C834.854 268.947 844.087 271.824 855.309 271.824ZM967.836 291V127.364H992.125V152.932H994.256C997.665 144.196 1003.17 137.413 1010.77 132.584C1018.37 127.683 1027.49 125.233 1038.15 125.233C1048.94 125.233 1057.93 127.683 1065.1 132.584C1072.35 137.413 1077.99 144.196 1082.04 152.932H1083.74C1087.94 144.48 1094.22 137.768 1102.6 132.797C1110.98 127.754 1121.03 125.233 1132.75 125.233C1147.38 125.233 1159.35 129.814 1168.65 138.976C1177.96 148.067 1182.61 162.236 1182.61 181.483V291H1157.47V181.483C1157.47 169.409 1154.16 160.78 1147.56 155.595C1140.95 150.411 1133.18 147.818 1124.23 147.818C1112.72 147.818 1103.81 151.298 1097.49 158.259C1091.17 165.148 1088.01 173.884 1088.01 184.466V291H1062.44V178.926C1062.44 169.622 1059.42 162.129 1053.38 156.447C1047.35 150.695 1039.57 147.818 1030.05 147.818C1023.52 147.818 1017.41 149.558 1011.73 153.038C1006.12 156.518 1001.57 161.348 998.091 167.527C994.682 173.635 992.978 180.702 992.978 188.727V291H967.836ZM1297.19 294.409C1281.42 294.409 1267.82 290.929 1256.38 283.969C1245.02 276.938 1236.25 267.136 1230.07 254.565C1223.96 241.923 1220.91 227.222 1220.91 210.46C1220.91 193.699 1223.96 178.926 1230.07 166.142C1236.25 153.287 1244.84 143.273 1255.85 136.099C1266.93 128.855 1279.86 125.233 1294.63 125.233C1303.15 125.233 1311.57 126.653 1319.88 129.494C1328.19 132.335 1335.75 136.952 1342.57 143.344C1349.39 149.665 1354.82 158.045 1358.87 168.486C1362.92 178.926 1364.94 191.781 1364.94 207.051V217.705H1238.81V195.972H1339.37C1339.37 186.739 1337.53 178.5 1333.83 171.256C1330.21 164.011 1325.03 158.294 1318.28 154.104C1311.6 149.913 1303.72 147.818 1294.63 147.818C1284.61 147.818 1275.95 150.304 1268.63 155.276C1261.39 160.176 1255.81 166.568 1251.91 174.452C1248 182.335 1246.05 190.787 1246.05 199.807V214.295C1246.05 226.653 1248.18 237.129 1252.44 245.723C1256.77 254.246 1262.78 260.744 1270.45 265.219C1278.12 269.622 1287.03 271.824 1297.19 271.824C1303.79 271.824 1309.76 270.901 1315.08 269.054C1320.48 267.136 1325.13 264.295 1329.04 260.531C1332.95 256.696 1335.96 251.937 1338.09 246.256L1362.38 253.074C1359.83 261.312 1355.53 268.557 1349.49 274.807C1343.46 280.986 1336 285.815 1327.12 289.295C1318.24 292.705 1308.27 294.409 1297.19 294.409ZM1558.73 127.364V148.67H1473.93V127.364H1558.73ZM1498.64 88.1591H1523.78V244.125C1523.78 251.227 1524.81 256.554 1526.87 260.105C1529 263.585 1531.7 265.929 1534.97 267.136C1538.31 268.273 1541.82 268.841 1545.52 268.841C1548.29 268.841 1550.56 268.699 1552.33 268.415C1554.11 268.06 1555.53 267.776 1556.6 267.562L1561.71 290.148C1560.01 290.787 1557.63 291.426 1554.57 292.065C1551.52 292.776 1547.65 293.131 1542.96 293.131C1535.86 293.131 1528.9 291.604 1522.08 288.55C1515.33 285.496 1509.72 280.844 1505.25 274.594C1500.84 268.344 1498.64 260.46 1498.64 250.943V88.1591ZM1661.27 294.409C1646.49 294.409 1633.53 290.893 1622.38 283.862C1611.3 276.831 1602.64 266.994 1596.39 254.352C1590.21 241.71 1587.12 226.937 1587.12 210.034C1587.12 192.989 1590.21 178.109 1596.39 165.396C1602.64 152.683 1611.3 142.811 1622.38 135.78C1633.53 128.749 1646.49 125.233 1661.27 125.233C1676.04 125.233 1688.96 128.749 1700.04 135.78C1711.19 142.811 1719.86 152.683 1726.04 165.396C1732.29 178.109 1735.41 192.989 1735.41 210.034C1735.41 226.937 1732.29 241.71 1726.04 254.352C1719.86 266.994 1711.19 276.831 1700.04 283.862C1688.96 290.893 1676.04 294.409 1661.27 294.409ZM1661.27 271.824C1672.49 271.824 1681.72 268.947 1688.96 263.195C1696.21 257.442 1701.57 249.878 1705.05 240.503C1708.53 231.128 1710.27 220.972 1710.27 210.034C1710.27 199.097 1708.53 188.905 1705.05 179.459C1701.57 170.013 1696.21 162.378 1688.96 156.554C1681.72 150.73 1672.49 147.818 1661.27 147.818C1650.04 147.818 1640.81 150.73 1633.57 156.554C1626.32 162.378 1620.96 170.013 1617.48 179.459C1614 188.905 1612.26 199.097 1612.26 210.034C1612.26 220.972 1614 231.128 1617.48 240.503C1620.96 249.878 1626.32 257.442 1633.57 263.195C1640.81 268.947 1650.04 271.824 1661.27 271.824ZM1990.7 294.835C1980.33 294.835 1970.92 292.882 1962.46 288.976C1954.01 284.999 1947.3 279.281 1942.33 271.824C1937.36 264.295 1934.87 255.205 1934.87 244.551C1934.87 235.176 1936.72 227.577 1940.41 221.753C1944.11 215.858 1949.04 211.241 1955.22 207.903C1961.4 204.565 1968.22 202.08 1975.67 200.446C1983.2 198.741 1990.77 197.392 1998.37 196.398C2008.31 195.119 2016.37 194.161 2022.55 193.521C2028.8 192.811 2033.35 191.639 2036.19 190.006C2039.1 188.372 2040.55 185.531 2040.55 181.483V180.631C2040.55 170.119 2037.68 161.952 2031.92 156.128C2026.24 150.304 2017.61 147.392 2006.04 147.392C1994.03 147.392 1984.62 150.02 1977.81 155.276C1970.99 160.531 1966.19 166.142 1963.42 172.108L1939.56 163.585C1943.82 153.642 1949.5 145.901 1956.61 140.361C1963.78 134.75 1971.59 130.844 1980.04 128.642C1988.57 126.369 1996.95 125.233 2005.18 125.233C2010.44 125.233 2016.48 125.872 2023.3 127.151C2030.18 128.358 2036.83 130.879 2043.22 134.714C2049.68 138.55 2055.04 144.338 2059.3 152.08C2063.57 159.821 2065.7 170.19 2065.7 183.188V291H2040.55V268.841H2039.28C2037.57 272.392 2034.73 276.192 2030.75 280.24C2026.78 284.288 2021.48 287.733 2014.88 290.574C2008.27 293.415 2000.21 294.835 1990.7 294.835ZM1994.53 272.25C2004.47 272.25 2012.86 270.297 2019.67 266.391C2026.56 262.484 2031.75 257.442 2035.23 251.263C2038.78 245.084 2040.55 238.585 2040.55 231.767V208.756C2039.49 210.034 2037.14 211.206 2033.52 212.271C2029.97 213.266 2025.85 214.153 2021.16 214.935C2016.55 215.645 2012.04 216.284 2007.63 216.852C2003.3 217.349 1999.79 217.776 1997.09 218.131C1990.55 218.983 1984.45 220.368 1978.76 222.286C1973.15 224.132 1968.61 226.937 1965.13 230.702C1961.72 234.395 1960.01 239.437 1960.01 245.83C1960.01 254.565 1963.25 261.17 1969.71 265.645C1976.24 270.048 1984.52 272.25 1994.53 272.25ZM2683.89 355.773C2671.74 355.773 2661.3 354.21 2652.57 351.085C2643.83 348.031 2636.55 343.983 2630.73 338.94C2624.97 333.969 2620.39 328.642 2616.98 322.96L2637.01 308.898C2639.28 311.881 2642.16 315.29 2645.64 319.125C2649.12 323.031 2653.88 326.405 2659.92 329.246C2666.02 332.158 2674.01 333.614 2683.89 333.614C2697.1 333.614 2708 330.418 2716.59 324.026C2725.19 317.634 2729.48 307.619 2729.48 293.983V260.744H2727.35C2725.51 263.727 2722.88 267.42 2719.47 271.824C2716.13 276.156 2711.3 280.027 2704.98 283.436C2698.73 286.774 2690.28 288.443 2679.63 288.443C2666.42 288.443 2654.55 285.318 2644.04 279.068C2633.6 272.818 2625.33 263.727 2619.22 251.795C2613.18 239.864 2610.17 225.375 2610.17 208.33C2610.17 191.568 2613.11 176.973 2619.01 164.544C2624.9 152.044 2633.11 142.385 2643.62 135.567C2654.13 128.678 2666.27 125.233 2680.05 125.233C2690.7 125.233 2699.16 127.009 2705.41 130.56C2711.73 134.04 2716.56 138.017 2719.9 142.491C2723.3 146.895 2725.93 150.517 2727.78 153.358H2730.34V127.364H2754.63V295.688C2754.63 309.75 2751.43 321.185 2745.04 329.991C2738.72 338.869 2730.19 345.368 2719.47 349.487C2708.82 353.678 2696.95 355.773 2683.89 355.773ZM2683.03 265.858C2693.12 265.858 2701.64 263.55 2708.6 258.933C2715.56 254.317 2720.85 247.676 2724.48 239.011C2728.1 230.347 2729.91 219.977 2729.91 207.903C2729.91 196.114 2728.13 185.709 2724.58 176.689C2721.03 167.669 2715.78 160.602 2708.82 155.489C2701.86 150.375 2693.26 147.818 2683.03 147.818C2672.38 147.818 2663.5 150.517 2656.4 155.915C2649.37 161.312 2644.08 168.557 2640.53 177.648C2637.05 186.739 2635.31 196.824 2635.31 207.903C2635.31 219.267 2637.08 229.317 2640.63 238.053C2644.26 246.717 2649.58 253.536 2656.61 258.507C2663.72 263.408 2672.52 265.858 2683.03 265.858ZM2848.8 294.835C2838.43 294.835 2829.02 292.882 2820.57 288.976C2812.12 284.999 2805.41 279.281 2800.44 271.824C2795.46 264.295 2792.98 255.205 2792.98 244.551C2792.98 235.176 2794.82 227.577 2798.52 221.753C2802.21 215.858 2807.15 211.241 2813.33 207.903C2819.5 204.565 2826.32 202.08 2833.78 200.446C2841.31 198.741 2848.87 197.392 2856.47 196.398C2866.42 195.119 2874.48 194.161 2880.66 193.521C2886.91 192.811 2891.45 191.639 2894.29 190.006C2897.2 188.372 2898.66 185.531 2898.66 181.483V180.631C2898.66 170.119 2895.78 161.952 2890.03 156.128C2884.35 150.304 2875.72 147.392 2864.14 147.392C2852.14 147.392 2842.73 150.02 2835.91 155.276C2829.09 160.531 2824.3 166.142 2821.53 172.108L2797.67 163.585C2801.93 153.642 2807.61 145.901 2814.71 140.361C2821.88 134.75 2829.7 130.844 2838.15 128.642C2846.67 126.369 2855.05 125.233 2863.29 125.233C2868.55 125.233 2874.58 125.872 2881.4 127.151C2888.29 128.358 2894.93 130.879 2901.32 134.714C2907.79 138.55 2913.15 144.338 2917.41 152.08C2921.67 159.821 2923.8 170.19 2923.8 183.188V291H2898.66V268.841H2897.38C2895.68 272.392 2892.84 276.192 2888.86 280.24C2884.88 284.288 2879.59 287.733 2872.98 290.574C2866.38 293.415 2858.32 294.835 2848.8 294.835ZM2852.64 272.25C2862.58 272.25 2870.96 270.297 2877.78 266.391C2884.67 262.484 2889.85 257.442 2893.33 251.263C2896.88 245.084 2898.66 238.585 2898.66 231.767V208.756C2897.59 210.034 2895.25 211.206 2891.63 212.271C2888.08 213.266 2883.96 214.153 2879.27 214.935C2874.65 215.645 2870.14 216.284 2865.74 216.852C2861.41 217.349 2857.89 217.776 2855.19 218.131C2848.66 218.983 2842.55 220.368 2836.87 222.286C2831.26 224.132 2826.71 226.937 2823.23 230.702C2819.82 234.395 2818.12 239.437 2818.12 245.83C2818.12 254.565 2821.35 261.17 2827.81 265.645C2834.35 270.048 2842.62 272.25 2852.64 272.25ZM2969.69 291V127.364H2993.98V152.932H2996.11C2999.52 144.196 3005.02 137.413 3012.62 132.584C3020.22 127.683 3029.35 125.233 3040 125.233C3050.8 125.233 3059.78 127.683 3066.96 132.584C3074.2 137.413 3079.85 144.196 3083.9 152.932H3085.6C3089.79 144.48 3096.08 137.768 3104.46 132.797C3112.84 127.754 3122.89 125.233 3134.61 125.233C3149.24 125.233 3161.2 129.814 3170.51 138.976C3179.81 148.067 3184.46 162.236 3184.46 181.483V291H3159.32V181.483C3159.32 169.409 3156.02 160.78 3149.41 155.595C3142.81 150.411 3135.03 147.818 3126.08 147.818C3114.58 147.818 3105.66 151.298 3099.34 158.259C3093.02 165.148 3089.86 173.884 3089.86 184.466V291H3064.29V178.926C3064.29 169.622 3061.27 162.129 3055.24 156.447C3049.2 150.695 3041.42 147.818 3031.91 147.818C3025.37 147.818 3019.26 149.558 3013.58 153.038C3007.97 156.518 3003.43 161.348 2999.95 167.527C2996.54 173.635 2994.83 180.702 2994.83 188.727V291H2969.69ZM3299.04 294.409C3283.27 294.409 3269.67 290.929 3258.24 283.969C3246.88 276.938 3238.1 267.136 3231.92 254.565C3225.82 241.923 3222.76 227.222 3222.76 210.46C3222.76 193.699 3225.82 178.926 3231.92 166.142C3238.1 153.287 3246.7 143.273 3257.71 136.099C3268.79 128.855 3281.71 125.233 3296.48 125.233C3305.01 125.233 3313.42 126.653 3321.73 129.494C3330.04 132.335 3337.61 136.952 3344.42 143.344C3351.24 149.665 3356.68 158.045 3360.72 168.486C3364.77 178.926 3366.8 191.781 3366.8 207.051V217.705H3240.66V195.972H3341.23C3341.23 186.739 3339.38 178.5 3335.69 171.256C3332.07 164.011 3326.88 158.294 3320.13 154.104C3313.46 149.913 3305.58 147.818 3296.48 147.818C3286.47 147.818 3277.81 150.304 3270.49 155.276C3263.25 160.176 3257.67 166.568 3253.76 174.452C3249.86 182.335 3247.9 190.787 3247.9 199.807V214.295C3247.9 226.653 3250.04 237.129 3254.3 245.723C3258.63 254.246 3264.63 260.744 3272.3 265.219C3279.97 269.622 3288.88 271.824 3299.04 271.824C3305.65 271.824 3311.61 270.901 3316.94 269.054C3322.34 267.136 3326.99 264.295 3330.89 260.531C3334.8 256.696 3337.82 251.937 3339.95 246.256L3364.24 253.074C3361.68 261.312 3357.39 268.557 3351.35 274.807C3345.31 280.986 3337.86 285.815 3328.98 289.295C3320.1 292.705 3310.12 294.409 3299.04 294.409ZM3427.2 72.8182V91.9943C3427.2 97.8182 3426.14 104.033 3424.01 110.638C3421.95 117.172 3418.89 123.528 3414.84 129.707C3410.87 135.815 3406.04 141.142 3400.36 145.688L3386.72 134.608C3391.19 128.216 3395.06 121.575 3398.33 114.686C3401.67 107.726 3403.34 100.304 3403.34 92.4205V72.8182H3427.2ZM3481.75 72.8182V91.9943C3481.75 97.8182 3480.68 104.033 3478.55 110.638C3476.49 117.172 3473.44 123.528 3469.39 129.707C3465.41 135.815 3460.58 141.142 3454.9 145.688L3441.26 134.608C3445.74 128.216 3449.61 121.575 3452.88 114.686C3456.21 107.726 3457.88 100.304 3457.88 92.4205V72.8182H3481.75Z" fill="#006CA9"/>
<path d="M14.4886 998V978.824C14.4886 973 15.5185 966.821 17.5781 960.287C19.7088 953.682 22.7628 947.325 26.7401 941.217C30.7884 935.038 35.6534 929.676 41.3352 925.131L54.9716 936.21C50.4972 942.602 46.5909 949.278 43.2528 956.239C39.9858 963.128 38.3523 970.514 38.3523 978.398V998H14.4886ZM69.0341 998V978.824C69.0341 973 70.0639 966.821 72.1236 960.287C74.2543 953.682 77.3082 947.325 81.2855 941.217C85.3338 935.038 90.1989 929.676 95.8807 925.131L109.517 936.21C105.043 942.602 101.136 949.278 97.7983 956.239C94.5313 963.128 92.8977 970.514 92.8977 978.398V998H69.0341ZM205.877 1151.41C190.11 1151.41 176.509 1147.93 165.075 1140.97C153.711 1133.94 144.94 1124.14 138.761 1111.57C132.653 1098.92 129.599 1084.22 129.599 1067.46C129.599 1050.7 132.653 1035.93 138.761 1023.14C144.94 1010.29 153.533 1000.27 164.542 993.099C175.621 985.855 188.548 982.233 203.32 982.233C211.843 982.233 220.259 983.653 228.569 986.494C236.879 989.335 244.442 993.952 251.261 1000.34C258.079 1006.66 263.512 1015.05 267.56 1025.49C271.609 1035.93 273.633 1048.78 273.633 1064.05V1074.7H147.496V1052.97H248.065C248.065 1043.74 246.218 1035.5 242.525 1028.26C238.903 1021.01 233.718 1015.29 226.971 1011.1C220.295 1006.91 212.411 1004.82 203.32 1004.82C193.306 1004.82 184.641 1007.3 177.326 1012.28C170.082 1017.18 164.506 1023.57 160.6 1031.45C156.694 1039.34 154.741 1047.79 154.741 1056.81V1071.3C154.741 1083.65 156.871 1094.13 161.133 1102.72C165.465 1111.25 171.467 1117.74 179.137 1122.22C186.808 1126.62 195.721 1128.82 205.877 1128.82C212.482 1128.82 218.448 1127.9 223.775 1126.05C229.173 1124.14 233.825 1121.3 237.731 1117.53C241.637 1113.7 244.656 1108.94 246.786 1103.26L271.076 1110.07C268.519 1118.31 264.222 1125.56 258.185 1131.81C252.148 1137.99 244.691 1142.82 235.813 1146.3C226.935 1149.7 216.957 1151.41 205.877 1151.41ZM311.879 1148V984.364H336.168V1009.93H338.299C341.708 1001.2 347.212 994.413 354.812 989.584C362.411 984.683 371.538 982.233 382.191 982.233C392.987 982.233 401.971 984.683 409.144 989.584C416.388 994.413 422.035 1001.2 426.083 1009.93H427.788C431.978 1001.48 438.263 994.768 446.644 989.797C455.025 984.754 465.075 982.233 476.793 982.233C491.424 982.233 503.391 986.814 512.695 995.976C521.999 1005.07 526.651 1019.24 526.651 1038.48V1148H501.509V1038.48C501.509 1026.41 498.207 1017.78 491.602 1012.6C484.996 1007.41 477.219 1004.82 468.271 1004.82C456.765 1004.82 447.852 1008.3 441.531 1015.26C435.21 1022.15 432.049 1030.88 432.049 1041.47V1148H406.481V1035.93C406.481 1026.62 403.462 1019.13 397.425 1013.45C391.388 1007.69 383.612 1004.82 374.094 1004.82C367.56 1004.82 361.452 1006.56 355.771 1010.04C350.16 1013.52 345.614 1018.35 342.134 1024.53C338.725 1030.63 337.021 1037.7 337.021 1045.73V1148H311.879ZM639.098 1151.41C624.325 1151.41 611.364 1147.89 600.213 1140.86C589.134 1133.83 580.469 1123.99 574.219 1111.35C568.04 1098.71 564.95 1083.94 564.95 1067.03C564.95 1049.99 568.04 1035.11 574.219 1022.4C580.469 1009.68 589.134 999.811 600.213 992.78C611.364 985.749 624.325 982.233 639.098 982.233C653.871 982.233 666.797 985.749 677.876 992.78C689.027 999.811 697.692 1009.68 703.871 1022.4C710.121 1035.11 713.246 1049.99 713.246 1067.03C713.246 1083.94 710.121 1098.71 703.871 1111.35C697.692 1123.99 689.027 1133.83 677.876 1140.86C666.797 1147.89 653.871 1151.41 639.098 1151.41ZM639.098 1128.82C650.32 1128.82 659.553 1125.95 666.797 1120.19C674.041 1114.44 679.403 1106.88 682.884 1097.5C686.364 1088.13 688.104 1077.97 688.104 1067.03C688.104 1056.1 686.364 1045.9 682.884 1036.46C679.403 1027.01 674.041 1019.38 666.797 1013.55C659.553 1007.73 650.32 1004.82 639.098 1004.82C627.876 1004.82 618.643 1007.73 611.399 1013.55C604.155 1019.38 598.793 1027.01 595.312 1036.46C591.832 1045.9 590.092 1056.1 590.092 1067.03C590.092 1077.97 591.832 1088.13 595.312 1097.5C598.793 1106.88 604.155 1114.44 611.399 1120.19C618.643 1125.95 627.876 1128.82 639.098 1128.82ZM818.102 1151.41C802.761 1151.41 789.551 1147.79 778.471 1140.54C767.392 1133.3 758.869 1123.32 752.903 1110.61C746.937 1097.89 743.954 1083.37 743.954 1067.03C743.954 1050.41 747.008 1035.75 753.116 1023.04C759.295 1010.25 767.889 1000.27 778.897 993.099C789.977 985.855 802.903 982.233 817.676 982.233C829.181 982.233 839.551 984.364 848.784 988.625C858.017 992.886 865.581 998.852 871.476 1006.52C877.37 1014.19 881.028 1023.14 882.449 1033.37H857.306C855.389 1025.91 851.127 1019.31 844.522 1013.55C837.988 1007.73 829.181 1004.82 818.102 1004.82C808.301 1004.82 799.707 1007.37 792.321 1012.49C785.005 1017.53 779.288 1024.67 775.169 1033.9C771.12 1043.06 769.096 1053.82 769.096 1066.18C769.096 1078.82 771.085 1089.83 775.062 1099.21C779.11 1108.58 784.792 1115.86 792.108 1121.05C799.494 1126.23 808.159 1128.82 818.102 1128.82C824.636 1128.82 830.566 1127.69 835.893 1125.41C841.22 1123.14 845.73 1119.88 849.423 1115.61C853.116 1111.35 855.744 1106.24 857.306 1100.27H882.449C881.028 1109.93 877.512 1118.63 871.902 1126.37C866.362 1134.04 859.011 1140.15 849.849 1144.7C840.758 1149.17 830.176 1151.41 818.102 1151.41ZM944.345 929.818V1148H919.203V929.818H944.345ZM1059 1151.41C1043.24 1151.41 1029.63 1147.93 1018.2 1140.97C1006.84 1133.94 998.065 1124.14 991.886 1111.57C985.778 1098.92 982.724 1084.22 982.724 1067.46C982.724 1050.7 985.778 1035.93 991.886 1023.14C998.065 1010.29 1006.66 1000.27 1017.67 993.099C1028.75 985.855 1041.67 982.233 1056.45 982.233C1064.97 982.233 1073.38 983.653 1081.69 986.494C1090 989.335 1097.57 993.952 1104.39 1000.34C1111.2 1006.66 1116.64 1015.05 1120.69 1025.49C1124.73 1035.93 1126.76 1048.78 1126.76 1064.05V1074.7H1000.62V1052.97H1101.19C1101.19 1043.74 1099.34 1035.5 1095.65 1028.26C1092.03 1021.01 1086.84 1015.29 1080.1 1011.1C1073.42 1006.91 1065.54 1004.82 1056.45 1004.82C1046.43 1004.82 1037.77 1007.3 1030.45 1012.28C1023.21 1017.18 1017.63 1023.57 1013.73 1031.45C1009.82 1039.34 1007.87 1047.79 1007.87 1056.81V1071.3C1007.87 1083.65 1010 1094.13 1014.26 1102.72C1018.59 1111.25 1024.59 1117.74 1032.26 1122.22C1039.93 1126.62 1048.85 1128.82 1059 1128.82C1065.61 1128.82 1071.57 1127.9 1076.9 1126.05C1082.3 1124.14 1086.95 1121.3 1090.86 1117.53C1094.76 1113.7 1097.78 1108.94 1099.91 1103.26L1124.2 1110.07C1121.64 1118.31 1117.35 1125.56 1111.31 1131.81C1105.27 1137.99 1097.82 1142.82 1088.94 1146.3C1080.06 1149.7 1070.08 1151.41 1059 1151.41ZM1202.08 1148L1152.22 984.364H1178.64L1214.01 1109.65H1215.71L1250.66 984.364H1277.5L1312.02 1109.22H1313.73L1349.09 984.364H1375.51L1325.66 1148H1300.94L1265.15 1022.29H1262.59L1226.79 1148H1202.08ZM1559.61 1151.41C1544.83 1151.41 1531.87 1147.89 1520.72 1140.86C1509.64 1133.83 1500.98 1123.99 1494.73 1111.35C1488.55 1098.71 1485.46 1083.94 1485.46 1067.03C1485.46 1049.99 1488.55 1035.11 1494.73 1022.4C1500.98 1009.68 1509.64 999.811 1520.72 992.78C1531.87 985.749 1544.83 982.233 1559.61 982.233C1574.38 982.233 1587.3 985.749 1598.38 992.78C1609.53 999.811 1618.2 1009.68 1624.38 1022.4C1630.63 1035.11 1633.75 1049.99 1633.75 1067.03C1633.75 1083.94 1630.63 1098.71 1624.38 1111.35C1618.2 1123.99 1609.53 1133.83 1598.38 1140.86C1587.3 1147.89 1574.38 1151.41 1559.61 1151.41ZM1559.61 1128.82C1570.83 1128.82 1580.06 1125.95 1587.3 1120.19C1594.55 1114.44 1599.91 1106.88 1603.39 1097.5C1606.87 1088.13 1608.61 1077.97 1608.61 1067.03C1608.61 1056.1 1606.87 1045.9 1603.39 1036.46C1599.91 1027.01 1594.55 1019.38 1587.3 1013.55C1580.06 1007.73 1570.83 1004.82 1559.61 1004.82C1548.38 1004.82 1539.15 1007.73 1531.91 1013.55C1524.66 1019.38 1519.3 1027.01 1515.82 1036.46C1512.34 1045.9 1510.6 1056.1 1510.6 1067.03C1510.6 1077.97 1512.34 1088.13 1515.82 1097.5C1519.3 1106.88 1524.66 1114.44 1531.91 1120.19C1539.15 1125.95 1548.38 1128.82 1559.61 1128.82ZM1743.3 984.364V1005.67H1658.5V984.364H1743.3ZM1683.21 945.159H1708.35V1101.12C1708.35 1108.23 1709.38 1113.55 1711.44 1117.11C1713.57 1120.59 1716.27 1122.93 1719.54 1124.14C1722.88 1125.27 1726.39 1125.84 1730.09 1125.84C1732.86 1125.84 1735.13 1125.7 1736.91 1125.41C1738.68 1125.06 1740.1 1124.78 1741.17 1124.56L1746.28 1147.15C1744.58 1147.79 1742.2 1148.43 1739.14 1149.07C1736.09 1149.78 1732.22 1150.13 1727.53 1150.13C1720.43 1150.13 1713.47 1148.6 1706.65 1145.55C1699.9 1142.5 1694.29 1137.84 1689.82 1131.59C1685.41 1125.34 1683.21 1117.46 1683.21 1107.94V945.159ZM1998.02 1151.84C1987.65 1151.84 1978.24 1149.88 1969.79 1145.98C1961.34 1142 1954.63 1136.28 1949.65 1128.82C1944.68 1121.3 1942.2 1112.2 1942.2 1101.55C1942.2 1092.18 1944.04 1084.58 1947.74 1078.75C1951.43 1072.86 1956.37 1068.24 1962.54 1064.9C1968.72 1061.57 1975.54 1059.08 1983 1057.45C1990.53 1055.74 1998.09 1054.39 2005.69 1053.4C2015.63 1052.12 2023.69 1051.16 2029.87 1050.52C2036.12 1049.81 2040.67 1048.64 2043.51 1047.01C2046.42 1045.37 2047.88 1042.53 2047.88 1038.48V1037.63C2047.88 1027.12 2045 1018.95 2039.25 1013.13C2033.57 1007.3 2024.94 1004.39 2013.36 1004.39C2001.36 1004.39 1991.95 1007.02 1985.13 1012.28C1978.31 1017.53 1973.52 1023.14 1970.75 1029.11L1946.88 1020.59C1951.15 1010.64 1956.83 1002.9 1963.93 997.361C1971.1 991.75 1978.92 987.844 1987.37 985.642C1995.89 983.369 2004.27 982.233 2012.51 982.233C2017.76 982.233 2023.8 982.872 2030.62 984.151C2037.51 985.358 2044.15 987.879 2050.54 991.714C2057 995.55 2062.37 1001.34 2066.63 1009.08C2070.89 1016.82 2073.02 1027.19 2073.02 1040.19V1148H2047.88V1125.84H2046.6C2044.9 1129.39 2042.05 1133.19 2038.08 1137.24C2034.1 1141.29 2028.81 1144.73 2022.2 1147.57C2015.6 1150.41 2007.54 1151.84 1998.02 1151.84ZM2001.86 1129.25C2011.8 1129.25 2020.18 1127.3 2027 1123.39C2033.89 1119.48 2039.07 1114.44 2042.55 1108.26C2046.1 1102.08 2047.88 1095.59 2047.88 1088.77V1065.76C2046.81 1067.03 2044.47 1068.21 2040.85 1069.27C2037.3 1070.27 2033.18 1071.15 2028.49 1071.93C2023.87 1072.64 2019.36 1073.28 2014.96 1073.85C2010.63 1074.35 2007.11 1074.78 2004.41 1075.13C1997.88 1075.98 1991.77 1077.37 1986.09 1079.29C1980.48 1081.13 1975.93 1083.94 1972.45 1087.7C1969.04 1091.39 1967.34 1096.44 1967.34 1102.83C1967.34 1111.57 1970.57 1118.17 1977.03 1122.64C1983.57 1127.05 1991.84 1129.25 2001.86 1129.25ZM2693.77 1151.41C2678 1151.41 2664.4 1147.93 2652.97 1140.97C2641.6 1133.94 2632.83 1124.14 2626.65 1111.57C2620.54 1098.92 2617.49 1084.22 2617.49 1067.46C2617.49 1050.7 2620.54 1035.93 2626.65 1023.14C2632.83 1010.29 2641.42 1000.27 2652.43 993.099C2663.51 985.855 2676.44 982.233 2691.21 982.233C2699.73 982.233 2708.15 983.653 2716.46 986.494C2724.77 989.335 2732.33 993.952 2739.15 1000.34C2745.97 1006.66 2751.4 1015.05 2755.45 1025.49C2759.5 1035.93 2761.52 1048.78 2761.52 1064.05V1074.7H2635.39V1052.97H2735.96C2735.96 1043.74 2734.11 1035.5 2730.42 1028.26C2726.79 1021.01 2721.61 1015.29 2714.86 1011.1C2708.19 1006.91 2700.3 1004.82 2691.21 1004.82C2681.2 1004.82 2672.53 1007.3 2665.22 1012.28C2657.97 1017.18 2652.4 1023.57 2648.49 1031.45C2644.58 1039.34 2642.63 1047.79 2642.63 1056.81V1071.3C2642.63 1083.65 2644.76 1094.13 2649.02 1102.72C2653.36 1111.25 2659.36 1117.74 2667.03 1122.22C2674.7 1126.62 2683.61 1128.82 2693.77 1128.82C2700.37 1128.82 2706.34 1127.9 2711.67 1126.05C2717.06 1124.14 2721.72 1121.3 2725.62 1117.53C2729.53 1113.7 2732.55 1108.94 2734.68 1103.26L2758.97 1110.07C2756.41 1118.31 2752.11 1125.56 2746.08 1131.81C2740.04 1137.99 2732.58 1142.82 2723.7 1146.3C2714.83 1149.7 2704.85 1151.41 2693.77 1151.41ZM2799.77 1148V984.364H2824.06V1009.93H2826.19C2829.6 1001.2 2835.1 994.413 2842.7 989.584C2850.3 984.683 2859.43 982.233 2870.08 982.233C2880.88 982.233 2889.86 984.683 2897.03 989.584C2904.28 994.413 2909.93 1001.2 2913.97 1009.93H2915.68C2919.87 1001.48 2926.15 994.768 2934.53 989.797C2942.92 984.754 2952.97 982.233 2964.68 982.233C2979.31 982.233 2991.28 986.814 3000.59 995.976C3009.89 1005.07 3014.54 1019.24 3014.54 1038.48V1148H2989.4V1038.48C2989.4 1026.41 2986.1 1017.78 2979.49 1012.6C2972.89 1007.41 2965.11 1004.82 2956.16 1004.82C2944.66 1004.82 2935.74 1008.3 2929.42 1015.26C2923.1 1022.15 2919.94 1030.88 2919.94 1041.47V1148H2894.37V1035.93C2894.37 1026.62 2891.35 1019.13 2885.32 1013.45C2879.28 1007.69 2871.5 1004.82 2861.99 1004.82C2855.45 1004.82 2849.34 1006.56 2843.66 1010.04C2838.05 1013.52 2833.5 1018.35 2830.02 1024.53C2826.62 1030.63 2824.91 1037.7 2824.91 1045.73V1148H2799.77ZM3108.66 1151.84C3098.3 1151.84 3088.88 1149.88 3080.43 1145.98C3071.98 1142 3065.27 1136.28 3060.3 1128.82C3055.33 1121.3 3052.84 1112.2 3052.84 1101.55C3052.84 1092.18 3054.69 1084.58 3058.38 1078.75C3062.07 1072.86 3067.01 1068.24 3073.19 1064.9C3079.37 1061.57 3086.19 1059.08 3093.64 1057.45C3101.17 1055.74 3108.74 1054.39 3116.34 1053.4C3126.28 1052.12 3134.34 1051.16 3140.52 1050.52C3146.77 1049.81 3151.31 1048.64 3154.15 1047.01C3157.07 1045.37 3158.52 1042.53 3158.52 1038.48V1037.63C3158.52 1027.12 3155.65 1018.95 3149.89 1013.13C3144.21 1007.3 3135.58 1004.39 3124.01 1004.39C3112 1004.39 3102.59 1007.02 3095.77 1012.28C3088.96 1017.53 3084.16 1023.14 3081.39 1029.11L3057.53 1020.59C3061.79 1010.64 3067.47 1002.9 3074.57 997.361C3081.75 991.75 3089.56 987.844 3098.01 985.642C3106.53 983.369 3114.91 982.233 3123.15 982.233C3128.41 982.233 3134.45 982.872 3141.26 984.151C3148.15 985.358 3154.79 987.879 3161.19 991.714C3167.65 995.55 3173.01 1001.34 3177.27 1009.08C3181.53 1016.82 3183.66 1027.19 3183.66 1040.19V1148H3158.52V1125.84H3157.24C3155.54 1129.39 3152.7 1133.19 3148.72 1137.24C3144.74 1141.29 3139.45 1144.73 3132.85 1147.57C3126.24 1150.41 3118.18 1151.84 3108.66 1151.84ZM3112.5 1129.25C3122.44 1129.25 3130.82 1127.3 3137.64 1123.39C3144.53 1119.48 3149.72 1114.44 3153.2 1108.26C3156.75 1102.08 3158.52 1095.59 3158.52 1088.77V1065.76C3157.46 1067.03 3155.11 1068.21 3151.49 1069.27C3147.94 1070.27 3143.82 1071.15 3139.13 1071.93C3134.52 1072.64 3130.01 1073.28 3125.6 1073.85C3121.27 1074.35 3117.76 1074.78 3115.06 1075.13C3108.52 1075.98 3102.41 1077.37 3096.73 1079.29C3091.12 1081.13 3086.58 1083.94 3083.1 1087.7C3079.69 1091.39 3077.98 1096.44 3077.98 1102.83C3077.98 1111.57 3081.21 1118.17 3087.68 1122.64C3094.21 1127.05 3102.49 1129.25 3112.5 1129.25ZM3295.61 1212.77C3283.46 1212.77 3273.02 1211.21 3264.28 1208.09C3255.55 1205.03 3248.27 1200.98 3242.44 1195.94C3236.69 1190.97 3232.11 1185.64 3228.7 1179.96L3248.73 1165.9C3251 1168.88 3253.88 1172.29 3257.36 1176.12C3260.84 1180.03 3265.6 1183.4 3271.64 1186.25C3277.74 1189.16 3285.73 1190.61 3295.61 1190.61C3308.82 1190.61 3319.72 1187.42 3328.31 1181.03C3336.91 1174.63 3341.2 1164.62 3341.2 1150.98V1117.74H3339.07C3337.22 1120.73 3334.6 1124.42 3331.19 1128.82C3327.85 1133.16 3323.02 1137.03 3316.7 1140.44C3310.45 1143.77 3302 1145.44 3291.34 1145.44C3278.13 1145.44 3266.27 1142.32 3255.76 1136.07C3245.32 1129.82 3237.05 1120.73 3230.94 1108.8C3224.9 1096.86 3221.88 1082.37 3221.88 1065.33C3221.88 1048.57 3224.83 1033.97 3230.73 1021.54C3236.62 1009.04 3244.82 999.385 3255.34 992.567C3265.85 985.678 3277.99 982.233 3291.77 982.233C3302.42 982.233 3310.88 984.009 3317.13 987.56C3323.45 991.04 3328.28 995.017 3331.61 999.491C3335.02 1003.89 3337.65 1007.52 3339.5 1010.36H3342.05V984.364H3366.34V1152.69C3366.34 1166.75 3363.15 1178.18 3356.76 1186.99C3350.44 1195.87 3341.91 1202.37 3331.19 1206.49C3320.53 1210.68 3308.67 1212.77 3295.61 1212.77ZM3294.75 1122.86C3304.84 1122.86 3313.36 1120.55 3320.32 1115.93C3327.28 1111.32 3332.57 1104.68 3336.19 1096.01C3339.82 1087.35 3341.63 1076.98 3341.63 1064.9C3341.63 1053.11 3339.85 1042.71 3336.3 1033.69C3332.75 1024.67 3327.49 1017.6 3320.53 1012.49C3313.57 1007.37 3304.98 1004.82 3294.75 1004.82C3284.1 1004.82 3275.22 1007.52 3268.12 1012.91C3261.09 1018.31 3255.8 1025.56 3252.25 1034.65C3248.77 1043.74 3247.03 1053.82 3247.03 1064.9C3247.03 1076.27 3248.8 1086.32 3252.35 1095.05C3255.97 1103.72 3261.3 1110.54 3268.33 1115.51C3275.44 1120.41 3284.24 1122.86 3294.75 1122.86ZM3434.53 929.818V948.994C3434.53 954.818 3433.46 961.033 3431.33 967.638C3429.27 974.172 3426.22 980.528 3422.17 986.707C3418.19 992.815 3413.36 998.142 3407.68 1002.69L3394.04 991.608C3398.52 985.216 3402.39 978.575 3405.66 971.686C3408.99 964.726 3410.66 957.304 3410.66 949.42V929.818H3434.53ZM3489.07 929.818V948.994C3489.07 954.818 3488.01 961.033 3485.88 967.638C3483.82 974.172 3480.76 980.528 3476.71 986.707C3472.74 992.815 3467.91 998.142 3462.22 1002.69L3448.59 991.608C3453.06 985.216 3456.93 978.575 3460.2 971.686C3463.54 964.726 3465.21 957.304 3465.21 949.42V929.818H3489.07Z" fill="#FA8F00"/>
<line x1="1381" y1="1220.01" x2="1381" y2="-0.00695801" stroke="#737370" stroke-width="10" stroke-dasharray="10 10"/>
<line x1="2605" y1="1220.02" x2="2605" y2="0.000854492" stroke="#737370" stroke-width="10" stroke-dasharray="10 10"/>
<line x1="2080" y1="1220.02" x2="2080" y2="0.000854492" stroke="#737370" stroke-width="10" stroke-dasharray="10 10"/>
<line x1="1929" y1="1220.02" x2="1929" y2="0.000854492" stroke="#737370" stroke-width="10" stroke-dasharray="10 10"/>
<line x1="1743" y1="1220.02" x2="1743" y2="0.000854492" stroke="#737370" stroke-width="10" stroke-dasharray="10 10"/>
<line x1="1474" y1="1220.02" x2="1474" y2="0.000854492" stroke="#737370" stroke-width="10" stroke-dasharray="10 10"/>
</svg>
